STARTFONT 2.1
COMMENT Created by fdbbdf
FONT helvetica22i
SIZE 22 78 78
FONTBOUNDINGBOX 26 25 -1 -6
STARTPROPERTIES 4
Ownership "  Copyright (c) 1984 Adobe Systems, Inc.  /adobe/fonttools/bitmaps/stdfontvec.ps HM24.bits  TOTAL BITMAP BYTES 3882  GUIDELINES -5 14 0 19 DONE  WIDTHERR -91 -110  "
FONT_ASCENT 19
FONT_DESCENT 6
DEFAULT_CHAR 32
ENDPROPERTIES
CHARS 95
STARTCHAR sp
ENCODING -1 32
SWIDTH 0 0
DWIDTH 7 0
BBX 0 0 0 0
BITMAP
ENDCHAR
STARTCHAR !
ENCODING -1 33
SWIDTH 0 0
DWIDTH 7 0
BBX 6 19 3 -1
BITMAP
0c00
0c00
0c00
0c00
1800
1800
1800
1800
3000
3000
3000
3000
6000
6000
0000
0000
c000
c000
c000
ENDCHAR
STARTCHAR "
ENCODING -1 34
SWIDTH 0 0
DWIDTH 8 0
BBX 7 6 4 12
BITMAP
6600
6600
6600
cc00
cc00
8800
ENDCHAR
STARTCHAR #
ENCODING -1 35
SWIDTH 0 0
DWIDTH 14 0
BBX 13 17 3 -1
BITMAP
0330
0330
0660
0660
3ff8
3ff8
0cc0
0cc0
1980
1980
ffe0
ffe0
3300
3300
6600
6600
6600
ENDCHAR
STARTCHAR $
ENCODING -1 36
SWIDTH 0 0
DWIDTH 13 0
BBX 13 22 2 -3
BITMAP
00c0
00c0
07e0
1ff0
39b8
3198
3300
3b00
1f00
0f80
07c0
06e0
0670
0630
0630
cc30
cc60
ece0
7fc0
3f00
1800
1800
ENDCHAR
STARTCHAR %
ENCODING -1 37
SWIDTH 0 0
DWIDTH 22 0
BBX 16 18 4 -1
BITMAP
0001
1e03
3e06
630c
c318
c310
c630
7c60
78c0
0180
031e
063e
0c63
08c3
18c3
30c6
607c
4078
ENDCHAR
STARTCHAR &
ENCODING -1 38
SWIDTH 0 0
DWIDTH 17 0
BBX 14 18 2 -1
BITMAP
01c0
07e0
0670
0c30
0c30
0e60
07e0
0780
0f00
3f84
71cc
60fc
c078
c070
c0f8
e1dc
7f8c
1e04
ENDCHAR
STARTCHAR '
ENCODING -1 39
SWIDTH 0 0
DWIDTH 6 0
BBX 3 6 5 12
BITMAP
6000
6000
6000
2000
6000
c000
ENDCHAR
STARTCHAR (
ENCODING -1 40
SWIDTH 0 0
DWIDTH 8 0
BBX 8 24 2 -6
BITMAP
0300
0600
0c00
1800
1800
3000
3000
6000
6000
c000
c000
c000
c000
c000
c000
c000
c000
c000
c000
c000
6000
6000
3000
1800
ENDCHAR
STARTCHAR )
ENCODING -1 41
SWIDTH 0 0
DWIDTH 8 0
BBX 8 24 0 -6
BITMAP
1800
0c00
0600
0600
0300
0300
0300
0300
0300
0300
0300
0300
0300
0300
0300
0600
0600
0c00
0c00
1800
1800
3000
6000
c000
ENDCHAR
STARTCHAR *
ENCODING -1 42
SWIDTH 0 0
DWIDTH 10 0
BBX 7 6 5 11
BITMAP
1000
d600
7c00
7000
d800
8800
ENDCHAR
STARTCHAR +
ENCODING -1 43
SWIDTH 0 0
DWIDTH 14 0
BBX 14 12 1 1
BITMAP
0180
0180
0180
0180
0180
3ffc
3ffc
0180
0180
0180
0180
0180
ENDCHAR
STARTCHAR ,
ENCODING -1 44
SWIDTH 0 0
DWIDTH 6 0
BBX 3 6 1 -4
BITMAP
6000
6000
6000
2000
6000
c000
ENDCHAR
STARTCHAR -
ENCODING -1 45
SWIDTH 0 0
DWIDTH 11 0
BBX 10 2 1 6
BITMAP
3fc0
3fc0
ENDCHAR
STARTCHAR .
ENCODING -1 46
SWIDTH 0 0
DWIDTH 6 0
BBX 2 3 2 -1
BITMAP
c000
c000
c000
ENDCHAR
STARTCHAR /
ENCODING -1 47
SWIDTH 0 0
DWIDTH 7 0
BBX 11 19 0 -1
BITMAP
0060
00c0
00c0
0180
0180
0300
0300
0600
0600
0c00
0c00
1800
1800
3000
3000
6000
6000
c000
c000
ENDCHAR
STARTCHAR 0
ENCODING -1 48
SWIDTH 0 0
DWIDTH 13 0
BBX 13 18 2 -1
BITMAP
03e0
07f0
0e38
1818
1818
3018
3018
6018
6030
6030
c030
c060
c060
c0c0
c0c0
e380
7f00
3e00
ENDCHAR
STARTCHAR 1
ENCODING -1 49
SWIDTH 0 0
DWIDTH 8 0
BBX 8 19 1 -2
BITMAP
0300
0300
0700
3e00
3e00
0600
0600
0c00
0c00
0c00
0c00
1800
1800
1800
1800
3000
3000
3000
0000
ENDCHAR
STARTCHAR 2
ENCODING -1 50
SWIDTH 0 0
DWIDTH 13 0
BBX 14 18 1 -1
BITMAP
03e0
07f8
0e1c
1c0c
180c
180c
001c
0038
0070
01e0
0380
0f00
1c00
3800
7000
e000
ffe0
ffe0
ENDCHAR
STARTCHAR 3
ENCODING -1 51
SWIDTH 0 0
DWIDTH 13 0
BBX 12 18 2 -1
BITMAP
03c0
0fe0
1c70
3830
3030
0030
0060
01c0
0780
07c0
00e0
0060
0060
c060
c0c0
e1c0
7f80
3e00
ENDCHAR
STARTCHAR 4
ENCODING -1 52
SWIDTH 0 0
DWIDTH 13 0
BBX 12 18 2 -1
BITMAP
0030
0070
00f0
01b0
0360
0660
0c60
1860
18c0
30c0
60c0
c180
ffe0
ffe0
0180
0300
0300
0300
ENDCHAR
STARTCHAR 5
ENCODING -1 53
SWIDTH 0 0
DWIDTH 13 0
BBX 13 18 2 -1
BITMAP
0ff8
0ff8
0c00
0c00
1800
1800
1f80
3fc0
38e0
0060
0060
0060
0060
00e0
c0c0
e3c0
7f80
1e00
ENDCHAR
STARTCHAR 6
ENCODING -1 54
SWIDTH 0 0
DWIDTH 13 0
BBX 13 18 2 -1
BITMAP
01e0
07f0
0e38
1c18
1800
3000
77c0
6fe0
7c70
f030
e030
e030
c070
c060
c0e0
e380
7f80
3e00
ENDCHAR
STARTCHAR 7
ENCODING -1 55
SWIDTH 0 0
DWIDTH 15 0
BBX 13 18 3 -1
BITMAP
3ff8
3ff8
0030
0060
00c0
01c0
0380
0300
0600
0e00
1c00
1800
3800
3000
6000
e000
c000
c000
ENDCHAR
STARTCHAR 8
ENCODING -1 56
SWIDTH 0 0
DWIDTH 13 0
BBX 12 18 2 -1
BITMAP
03c0
0fe0
0e70
1c30
1830
1830
1860
0de0
1f80
3fc0
70e0
e060
c060
c060
c0c0
e1c0
7f80
3e00
ENDCHAR
STARTCHAR 9
ENCODING -1 57
SWIDTH 0 0
DWIDTH 13 0
BBX 13 18 2 -1
BITMAP
03e0
0ff0
0e38
3818
3018
7018
6038
6038
6070
71f0
3fb0
1e60
0060
00c0
c1c0
e380
7f00
3c00
ENDCHAR
STARTCHAR :
ENCODING -1 58
SWIDTH 0 0
DWIDTH 6 0
BBX 5 14 3 -1
BITMAP
1800
1800
1800
0000
0000
0000
0000
0000
0000
0000
0000
c000
c000
c000
ENDCHAR
STARTCHAR ;
ENCODING -1 59
SWIDTH 0 0
DWIDTH 6 0
BBX 6 17 2 -4
BITMAP
0c00
0c00
0c00
0000
0000
0000
0000
0000
0000
0000
0000
6000
6000
6000
2000
6000
c000
ENDCHAR
STARTCHAR <
ENCODING -1 60
SWIDTH 0 0
DWIDTH 15 0
BBX 12 11 3 1
BITMAP
0070
01e0
0780
1e00
7800
e000
f000
3c00
0f00
03c0
00e0
ENDCHAR
STARTCHAR =
ENCODING -1 61
SWIDTH 0 0
DWIDTH 13 0
BBX 11 6 1 3
BITMAP
3fe0
3fe0
0000
0000
3fe0
3fe0
ENDCHAR
STARTCHAR >
ENCODING -1 62
SWIDTH 0 0
DWIDTH 16 0
BBX 13 11 3 1
BITMAP
7000
3c00
0f00
03c0
00f0
0070
01e0
0780
1e00
7800
e000
ENDCHAR
STARTCHAR ?
ENCODING -1 63
SWIDTH 0 0
DWIDTH 13 0
BBX 11 19 4 -1
BITMAP
0f80
3fc0
70e0
6060
c060
c0e0
01c0
0780
0e00
1c00
1800
3000
3000
3000
0000
0000
6000
6000
6000
ENDCHAR
STARTCHAR @
ENCODING -1 64
SWIDTH 0 0
DWIDTH 22 0
BBX 21 23 2 -5
BITMAP
003f0000
00ffc000
03c0e000
07007000
0c003000
18001800
30381800
30fd9800
61c79800
63831800
63061800
c6063800
c60c3000
c60c7000
c61c6000
c71cc000
c3ffc000
c1e70000
60000000
70000000
38180000
1ff80000
07e00000
ENDCHAR
STARTCHAR A
ENCODING -1 65
SWIDTH 0 0
DWIDTH 17 0
BBX 15 19 1 -1
BITMAP
0070
0070
00f0
00f8
01d8
0198
0398
0318
0718
060c
0e0c
0ffc
1ffc
180c
3806
3006
7006
6006
6006
ENDCHAR
STARTCHAR B
ENCODING -1 66
SWIDTH 0 0
DWIDTH 17 0
BBX 16 19 2 -1
BITMAP
0ffc
0ffe
0c07
0c03
1803
1803
1807
180e
3ff8
3ffc
300e
3006
6006
6006
6006
600e
c03c
fff8
ffe0
ENDCHAR
STARTCHAR C
ENCODING -1 67
SWIDTH 0 0
DWIDTH 18 0
BBX 17 19 2 -1
BITMAP
00fe0000
03ff0000
07838000
0e018000
18018000
38000000
30000000
60000000
60000000
60000000
c0000000
c0000000
c0000000
c0060000
e00e0000
601c0000
78780000
3ff00000
0fc00000
ENDCHAR
STARTCHAR D
ENCODING -1 68
SWIDTH 0 0
DWIDTH 18 0
BBX 18 19 2 -1
BITMAP
0ffc0000
0fff0000
0c078000
0c018000
1801c000
1800c000
1800c000
1800c000
3000c000
30018000
30018000
30018000
60030000
60070000
600e0000
601c0000
c0780000
fff00000
ffc00000
ENDCHAR
STARTCHAR E
ENCODING -1 69
SWIDTH 0 0
DWIDTH 16 0
BBX 16 19 2 -1
BITMAP
0fff
0fff
0c00
0c00
1800
1800
1800
1800
3ff8
3ff8
3000
3000
6000
6000
6000
6000
c000
fff0
fff0
ENDCHAR
STARTCHAR F
ENCODING -1 70
SWIDTH 0 0
DWIDTH 14 0
BBX 15 19 2 -1
BITMAP
0ffe
0ffe
0c00
0c00
1800
1800
1800
1800
3000
3ff0
3ff0
3000
6000
6000
6000
6000
c000
c000
c000
ENDCHAR
STARTCHAR G
ENCODING -1 71
SWIDTH 0 0
DWIDTH 19 0
BBX 17 19 2 -1
BITMAP
00fe0000
03ff0000
07838000
0e018000
18018000
38000000
30000000
60000000
60000000
603f8000
c03f8000
c0038000
c0030000
c0070000
e00e0000
601e0000
78760000
3fec0000
0fcc0000
ENDCHAR
STARTCHAR H
ENCODING -1 72
SWIDTH 0 0
DWIDTH 18 0
BBX 18 19 2 -1
BITMAP
0c00c000
0c00c000
0c00c000
0c00c000
18018000
18018000
18018000
18018000
3fff0000
3fff0000
30030000
30030000
60060000
60060000
60060000
60060000
c00c0000
c00c0000
c00c0000
ENDCHAR
STARTCHAR I
ENCODING -1 73
SWIDTH 0 0
DWIDTH 8 0
BBX 6 19 3 -1
BITMAP
0c00
0c00
0c00
0c00
1800
1800
1800
1800
3000
3000
3000
3000
6000
6000
6000
6000
c000
c000
c000
ENDCHAR
STARTCHAR J
ENCODING -1 74
SWIDTH 0 0
DWIDTH 13 0
BBX 13 19 2 -1
BITMAP
0018
0018
0018
0018
0030
0030
0030
0030
0060
0060
0060
0060
c0c0
c0c0
c1c0
c180
e380
7f00
3e00
ENDCHAR
STARTCHAR K
ENCODING -1 75
SWIDTH 0 0
DWIDTH 18 0
BBX 17 19 2 -1
BITMAP
0c038000
0c070000
0c0e0000
0c1c0000
18700000
18e00000
19c00000
1b800000
3f000000
3f800000
39c00000
30c00000
60e00000
60700000
60380000
60180000
c01c0000
c00e0000
c0060000
ENDCHAR
STARTCHAR L
ENCODING -1 76
SWIDTH 0 0
DWIDTH 14 0
BBX 11 19 2 -1
BITMAP
0c00
0c00
0c00
0c00
1800
1800
1800
1800
3000
3000
3000
3000
6000
6000
6000
6000
c000
ffe0
ffe0
ENDCHAR
STARTCHAR M
ENCODING -1 77
SWIDTH 0 0
DWIDTH 22 0
BBX 22 19 2 -1
BITMAP
0c000c00
0c001c00
0e003c00
1e003c00
1e007800
1e00f800
1b00d800
1b01d800
3303b000
33073000
33073000
330e3000
619c6000
61986000
61b86000
61f06000
c1e0c000
c0e0c000
c0c0c000
ENDCHAR
STARTCHAR N
ENCODING -1 78
SWIDTH 0 0
DWIDTH 18 0
BBX 18 19 2 -1
BITMAP
0e00c000
0e00c000
0e00c000
0f00c000
1b018000
1b018000
19818000
19818000
31830000
30c30000
30c30000
30630000
60660000
60360000
60360000
60360000
c01c0000
c01c0000
c01c0000
ENDCHAR
STARTCHAR O
ENCODING -1 79
SWIDTH 0 0
DWIDTH 18 0
BBX 18 19 2 -1
BITMAP
00fc0000
03ff0000
07878000
0e018000
1801c000
3800c000
3000c000
6000c000
6000c000
e001c000
c0018000
c0018000
c0030000
c0070000
e0060000
601c0000
78780000
3ff00000
0fc00000
ENDCHAR
STARTCHAR P
ENCODING -1 80
SWIDTH 0 0
DWIDTH 16 0
BBX 16 19 2 -1
BITMAP
0ffc
0ffe
0c07
0c03
1803
1803
1806
180e
3ffc
3ff0
3000
3000
6000
6000
6000
6000
c000
c000
c000
ENDCHAR
STARTCHAR Q
ENCODING -1 81
SWIDTH 0 0
DWIDTH 18 0
BBX 18 19 2 -1
BITMAP
00fc0000
03ff0000
07878000
0e018000
1801c000
3800c000
3000c000
6000c000
6000c000
60018000
c0018000
c0018000
c0030000
c1c70000
e0e60000
607c0000
78780000
3ffc0000
0fce0000
ENDCHAR
STARTCHAR R
ENCODING -1 82
SWIDTH 0 0
DWIDTH 17 0
BBX 16 19 2 -1
BITMAP
0ffc
0ffe
0c07
0c03
1803
1803
1803
1806
3ffc
3ff8
301c
300c
600c
600c
600c
600c
c018
c018
c018
ENDCHAR
STARTCHAR S
ENCODING -1 83
SWIDTH 0 0
DWIDTH 16 0
BBX 16 19 1 -1
BITMAP
00f8
03fe
0f0f
0c03
1803
1800
1c00
0f00
07e0
00f8
001c
000e
0006
c006
c00e
e00c
783c
3ff0
0fc0
ENDCHAR
STARTCHAR T
ENCODING -1 84
SWIDTH 0 0
DWIDTH 16 0
BBX 14 19 5 -1
BITMAP
fffc
fffc
0300
0300
0600
0600
0600
0600
0c00
0c00
0c00
0c00
1800
1800
1800
1800
3000
3000
3000
ENDCHAR
STARTCHAR U
ENCODING -1 85
SWIDTH 0 0
DWIDTH 18 0
BBX 17 19 3 -1
BITMAP
18018000
18018000
18018000
30030000
30030000
30030000
30030000
60060000
60060000
60060000
60060000
600c0000
c00c0000
c01c0000
c0180000
e0380000
60700000
7fe00000
1f800000
ENDCHAR
STARTCHAR V
ENCODING -1 86
SWIDTH 0 0
DWIDTH 17 0
BBX 15 19 5 -1
BITMAP
c006
c006
c00c
c00c
c018
c038
6030
6070
6060
60c0
61c0
6180
6380
6300
6700
3600
3c00
3c00
3800
ENDCHAR
STARTCHAR W
ENCODING -1 87
SWIDTH 0 0
DWIDTH 22 0
BBX 20 19 5 -1
BITMAP
c0603000
c0603000
c0e06000
c0e06000
c1e0c000
c1e0c000
c3618000
c3618000
c7638000
c6630000
ce670000
cc660000
dc6e0000
d86c0000
783c0000
70380000
70380000
60300000
60300000
ENDCHAR
STARTCHAR X
ENCODING -1 88
SWIDTH 0 0
DWIDTH 17 0
BBX 19 19 1 -1
BITMAP
0c006000
0e00e000
0601c000
07038000
03070000
018e0000
01dc0000
00f80000
00f00000
00e00000
01f00000
03b00000
07380000
0e180000
1c1c0000
380c0000
700e0000
e0060000
c0060000
ENDCHAR
STARTCHAR Y
ENCODING -1 89
SWIDTH 0 0
DWIDTH 14 0
BBX 15 19 5 -1
BITMAP
c00e
c01c
c038
6070
60e0
61c0
3180
3300
3700
3e00
1c00
1800
1800
1800
3000
3000
3000
3000
3000
ENDCHAR
STARTCHAR Z
ENCODING -1 90
SWIDTH 0 0
DWIDTH 15 0
BBX 17 19 1 -1
BITMAP
0fff8000
0fff8000
00038000
00070000
000e0000
001c0000
00380000
00700000
00e00000
01c00000
03800000
07000000
0e000000
1c000000
38000000
70000000
e0000000
fff80000
fff80000
ENDCHAR
STARTCHAR [
ENCODING -1 91
SWIDTH 0 0
DWIDTH 7 0
BBX 9 24 1 -6
BITMAP
0780
0780
0600
0600
0c00
0c00
0c00
0c00
1800
1800
1800
1800
3000
3000
3000
3000
6000
6000
6000
6000
c000
c000
f000
f000
ENDCHAR
STARTCHAR \
ENCODING -1 92
SWIDTH 0 0
DWIDTH 7 0
BBX 6 19 4 -1
BITMAP
c000
c000
c000
c000
c000
c000
c000
c000
c000
c000
6000
6000
6000
6000
6000
6000
6000
6000
6000
ENDCHAR
STARTCHAR ]
ENCODING -1 93
SWIDTH 0 0
DWIDTH 7 0
BBX 9 24 1 -6
BITMAP
0780
0780
0180
0180
0300
0300
0300
0300
0600
0600
0600
0600
0c00
0c00
0c00
0c00
1800
1800
1800
1800
3000
3000
f000
f000
ENDCHAR
STARTCHAR ^
ENCODING -1 94
SWIDTH 0 0
DWIDTH 12 0
BBX 12 8 2 10
BITMAP
0180
0380
06c0
0cc0
1860
3060
6030
c030
ENDCHAR
STARTCHAR _
ENCODING -1 95
SWIDTH 0 0
DWIDTH 14 0
BBX 14 2 -1 -6
BITMAP
fffc
fffc
ENDCHAR
STARTCHAR `
ENCODING -1 96
SWIDTH 0 0
DWIDTH 6 0
BBX 3 6 5 12
BITMAP
6000
c000
8000
c000
c000
c000
ENDCHAR
STARTCHAR a
ENCODING -1 97
SWIDTH 0 0
DWIDTH 13 0
BBX 11 14 2 -1
BITMAP
07c0
1fe0
3860
3060
00e0
07c0
1fc0
78c0
6180
c180
c380
c780
fdc0
78c0
ENDCHAR
STARTCHAR b
ENCODING -1 98
SWIDTH 0 0
DWIDTH 14 0
BBX 13 19 2 -1
BITMAP
0c00
0c00
0c00
1800
1800
19e0
1ff0
3e38
3818
3018
3018
7018
6018
6030
6030
e060
f1e0
ff80
cf00
ENDCHAR
STARTCHAR c
ENCODING -1 99
SWIDTH 0 0
DWIDTH 12 0
BBX 12 14 2 -1
BITMAP
03c0
0fe0
1c60
3060
7000
6000
e000
c000
c000
c000
c0c0
e1c0
7f80
3e00
ENDCHAR
STARTCHAR d
ENCODING -1 100
SWIDTH 0 0
DWIDTH 14 0
BBX 14 19 2 -1
BITMAP
000c
000c
000c
0018
0018
0798
0ff8
1c70
3030
7030
6030
6060
c060
c060
c060
c0c0
e3c0
7fc0
3cc0
ENDCHAR
STARTCHAR e
ENCODING -1 101
SWIDTH 0 0
DWIDTH 13 0
BBX 12 14 2 -1
BITMAP
03c0
0fe0
1c70
3030
7030
6030
ffe0
ffe0
c000
c000
c0c0
e1c0
7f80
3e00
ENDCHAR
STARTCHAR f
ENCODING -1 102
SWIDTH 0 0
DWIDTH 9 0
BBX 9 19 3 -1
BITMAP
0780
0f80
0c00
1800
1800
1800
7f00
7f00
3000
3000
3000
6000
6000
6000
6000
c000
c000
c000
c000
ENDCHAR
STARTCHAR g
ENCODING -1 103
SWIDTH 0 0
DWIDTH 14 0
BBX 15 19 0 -6
BITMAP
01e6
03fe
071e
0c0c
1c0c
180c
180c
3018
3018
3018
3038
38f0
1ff0
0f30
0030
6060
70e0
3fc0
0f00
ENDCHAR
STARTCHAR h
ENCODING -1 104
SWIDTH 0 0
DWIDTH 13 0
BBX 12 19 2 -1
BITMAP
0c00
0c00
0c00
0c00
1800
19e0
1bf0
1e30
3830
3030
3030
3030
6060
6060
6060
6060
c0c0
c0c0
c0c0
ENDCHAR
STARTCHAR i
ENCODING -1 105
SWIDTH 0 0
DWIDTH 6 0
BBX 6 19 2 -1
BITMAP
0c00
0c00
0c00
0000
0000
1800
1800
1800
3000
3000
3000
3000
6000
6000
6000
6000
c000
c000
c000
ENDCHAR
STARTCHAR j
ENCODING -1 106
SWIDTH 0 0
DWIDTH 7 0
BBX 10 24 -1 -6
BITMAP
00c0
00c0
00c0
0000
0000
0180
0180
0180
0300
0300
0300
0300
0600
0600
0600
0600
0c00
0c00
0c00
0c00
1800
1800
f800
f000
ENDCHAR
STARTCHAR k
ENCODING -1 107
SWIDTH 0 0
DWIDTH 13 0
BBX 12 19 2 -1
BITMAP
0c00
0c00
0c00
0c00
1800
1870
18e0
19c0
3380
3700
3e00
3e00
6700
6300
6380
6180
c1c0
c0c0
c0e0
ENDCHAR
STARTCHAR l
ENCODING -1 108
SWIDTH 0 0
DWIDTH 6 0
BBX 6 19 2 -1
BITMAP
0c00
0c00
0c00
1800
1800
1800
1800
3000
3000
3000
3000
6000
6000
6000
6000
c000
c000
c000
c000
ENDCHAR
STARTCHAR m
ENCODING -1 109
SWIDTH 0 0
DWIDTH 20 0
BBX 18 14 2 -1
BITMAP
19c78000
1fefc000
1c78c000
3060c000
3060c000
3060c000
3060c000
60c18000
60c18000
60c18000
60c18000
c1830000
c1830000
c1830000
ENDCHAR
STARTCHAR n
ENCODING -1 110
SWIDTH 0 0
DWIDTH 14 0
BBX 12 14 2 -1
BITMAP
19e0
1bf0
1e30
3830
3030
3030
3030
6060
6060
6060
6060
c0c0
c0c0
c0c0
ENDCHAR
STARTCHAR o
ENCODING -1 111
SWIDTH 0 0
DWIDTH 13 0
BBX 12 14 2 -1
BITMAP
07c0
0fe0
1c70
3030
7030
6030
e030
c070
c060
c0e0
c0c0
e380
7f00
3e00
ENDCHAR
STARTCHAR p
ENCODING -1 112
SWIDTH 0 0
DWIDTH 14 0
BBX 14 19 1 -6
BITMAP
0cf0
0ff8
0f1c
0c0c
180c
180c
180c
180c
3018
3018
3030
38f0
7fc0
6780
6000
6000
c000
c000
c000
ENDCHAR
STARTCHAR q
ENCODING -1 113
SWIDTH 0 0
DWIDTH 14 0
BBX 13 19 2 -6
BITMAP
0798
0ff8
1c78
3030
7030
6030
6030
c060
c060
c060
c0e0
e3c0
7fc0
3cc0
00c0
0180
0180
0180
0180
ENDCHAR
STARTCHAR r
ENCODING -1 114
SWIDTH 0 0
DWIDTH 9 0
BBX 10 14 2 -1
BITMAP
1980
1b80
1e00
3c00
3800
3000
3000
6000
6000
6000
6000
c000
c000
c000
ENDCHAR
STARTCHAR s
ENCODING -1 115
SWIDTH 0 0
DWIDTH 13 0
BBX 12 14 2 -1
BITMAP
0f80
1fc0
38e0
3060
3800
1c00
0f00
0380
01c0
c0c0
c0c0
e1c0
7f80
1e00
ENDCHAR
STARTCHAR t
ENCODING -1 116
SWIDTH 0 0
DWIDTH 8 0
BBX 7 18 3 -1
BITMAP
0c00
0c00
0c00
1800
1800
7e00
7e00
3000
3000
6000
6000
6000
6000
c000
c000
c000
f000
7000
ENDCHAR
STARTCHAR u
ENCODING -1 117
SWIDTH 0 0
DWIDTH 14 0
BBX 12 14 3 -1
BITMAP
3030
3030
3030
6060
6060
6060
6060
c0c0
c0c0
c0c0
c1c0
c780
fd80
7980
ENDCHAR
STARTCHAR v
ENCODING -1 118
SWIDTH 0 0
DWIDTH 10 0
BBX 11 14 1 -1
BITMAP
3060
3060
30c0
30c0
3180
3180
3300
3300
3600
3e00
3c00
1c00
1800
1800
ENDCHAR
STARTCHAR w
ENCODING -1 119
SWIDTH 0 0
DWIDTH 18 0
BBX 17 14 3 -1
BITMAP
c1c18000
c1c18000
c3c30000
c3c30000
c6c60000
c6c60000
cccc0000
cccc0000
d8d80000
d8d80000
f0f00000
70700000
60600000
60600000
ENDCHAR
STARTCHAR x
ENCODING -1 120
SWIDTH 0 0
DWIDTH 12 0
BBX 14 14 1 -1
BITMAP
180c
181c
0c38
0c70
06e0
07c0
0380
0700
0f80
1d80
38c0
70c0
e060
c060
ENDCHAR
STARTCHAR y
ENCODING -1 121
SWIDTH 0 0
DWIDTH 13 0
BBX 14 19 1 -6
BITMAP
300c
301c
3018
1838
1830
1870
0c60
0ce0
0cc0
0d80
0780
0700
0700
0600
0e00
0c00
1c00
f800
f000
ENDCHAR
STARTCHAR z
ENCODING -1 122
SWIDTH 0 0
DWIDTH 12 0
BBX 13 14 1 -1
BITMAP
1ff8
1ff8
0030
0060
00c0
0180
0300
0600
0c00
1800
3000
6000
ffc0
ffc0
ENDCHAR
STARTCHAR {
ENCODING -1 123
SWIDTH 0 0
DWIDTH 9 0
BBX 10 24 2 -6
BITMAP
01c0
0300
0600
0600
0c00
0c00
0c00
1800
1800
1800
3000
c000
6000
3000
3000
3000
3000
3000
6000
6000
6000
6000
3000
1800
ENDCHAR
STARTCHAR |
ENCODING -1 124
SWIDTH 0 0
DWIDTH 6 0
BBX 7 24 1 -6
BITMAP
0600
0600
0600
0600
0c00
0c00
0c00
0c00
1800
1800
1800
1800
3000
3000
3000
3000
6000
6000
6000
6000
c000
c000
c000
c000
ENDCHAR
STARTCHAR }
ENCODING -1 125
SWIDTH 0 0
DWIDTH 9 0
BBX 10 24 -1 -6
BITMAP
0600
0300
0180
0180
0180
0180
0300
0300
0300
0300
0300
0180
00c0
0180
0300
0300
0300
0600
0600
0600
0c00
0c00
1800
7000
ENDCHAR
STARTCHAR ~
ENCODING -1 126
SWIDTH 0 0
DWIDTH 14 0
BBX 11 4 3 4
BITMAP
3860
7e60
cfc0
c380
ENDCHAR
ENDFONT
